<svg viewBox="0 0 674.1 307" xmlns="http://www.w3.org/2000/svg"><path d="m375 272.8h52.3c1.4 0 2.5-1.1 2.5-2.5s-1.1-2.5-2.5-2.5h-52.3c-1.4 0-2.5 1.1-2.5 2.5s1.1 2.5 2.5 2.5m-230.6-15.8h-67.7c-1.4 0-2.5 1.1-2.5 2.5s1.1 2.5 2.5 2.5h67.7c1.4 0 2.5-1.1 2.5-2.5s-1.1-2.5-2.5-2.5m168.2 0h-62.4c-1.4 0-2.5 1.1-2.5 2.5s1.1 2.5 2.5 2.5h62.4c1.4 0 2.5-1.1 2.5-2.5s-1.1-2.5-2.5-2.5m-276 15.8h80.1c1.4 0 2.5-1.1 2.5-2.5s-1.1-2.5-2.5-2.5h-80.1c-1.4 0-2.5 1.1-2.5 2.5s1.2 2.5 2.5 2.5m100.1 0h20.9c1.4 0 2.5-1.1 2.5-2.5s-1.1-2.5-2.5-2.5h-20.9c-1.4 0-2.5 1.1-2.5 2.5s1.1 2.5 2.5 2.5m36.5 0h49.7c1.4 0 2.5-1.1 2.5-2.5s-1.1-2.5-2.5-2.5h-49.7c-1.4 0-2.5 1.1-2.5 2.5s1.1 2.5 2.5 2.5m61.2 0h104.5c1.4 0 2.5-1.1 2.5-2.5s-1.1-2.5-2.5-2.5h-104.5c-1.4 0-2.5 1.1-2.5 2.5s1.1 2.5 2.5 2.5m-84.6 13.1h39c1.4 0 2.5-1.1 2.5-2.5s-1.1-2.5-2.5-2.5h-39c-1.4 0-2.5 1.1-2.5 2.5s1.1 2.5 2.5 2.5m-84.5 0h68.7c1.4 0 2.5-1.1 2.5-2.5s-1.1-2.5-2.5-2.5h-68.7c-1.4 0-2.5 1.1-2.5 2.5s1.1 2.5 2.5 2.5m137.9 0h83.4c1.4 0 2.5-1.1 2.5-2.5s-1.1-2.5-2.5-2.5h-83.4c-1.4 0-2.5 1.1-2.5 2.5s1.1 2.5 2.5 2.5m250.9-28.9h-61.1c-1.4 0-2.5 1.1-2.5 2.5s1.1 2.5 2.5 2.5h61.1c1.4 0 2.5-1.1 2.5-2.5s-1.1-2.5-2.5-2.5m144 0h-50.2c-1.4 0-2.5 1.1-2.5 2.5s1.1 2.5 2.5 2.5h50.2c1.4 0 2.5-1.1 2.5-2.5s-1.1-2.5-2.5-2.5m-188.2 28.9h30.4c1.4 0 2.5-1.1 2.5-2.5s-1.1-2.5-2.5-2.5h-30.4c-1.4 0-2.5 1.1-2.5 2.5s1.1 2.5 2.5 2.5m45.5 0h50.9c1.4 0 2.5-1.1 2.5-2.5s-1.1-2.5-2.5-2.5h-50.9c-1.4 0-2.5 1.1-2.5 2.5s1.1 2.5 2.5 2.5m61.7 0h22.1c1.4 0 2.5-1.1 2.5-2.5s-1.1-2.5-2.5-2.5h-22.1c-1.4 0-2.5 1.1-2.5 2.5s1.1 2.5 2.5 2.5m-72.6-13.1h123.5c1.4 0 2.5-1.1 2.5-2.5s-1.1-2.5-2.5-2.5h-123.5c-1.4 0-2.5 1.1-2.5 2.5s1.1 2.5 2.5 2.5m137.8 0h34.9c1.4 0 2.5-1.1 2.5-2.5s-1.1-2.5-2.5-2.5h-34.9c-1.4 0-2.5 1.1-2.5 2.5s1.1 2.5 2.5 2.5m-27 13.1h37.5c1.4 0 2.5-1.1 2.5-2.5s-1.1-2.5-2.5-2.5h-37.5c-1.4 0-2.5 1.1-2.5 2.5s1.1 2.5 2.5 2.5" fill="#ededed"/><path d="m338.3 22.8h-297.5c-1.4 0-2.5 1.1-2.5 2.5v175.2c0 1.4 1.1 2.5 2.5 2.5h111.5l-5.6 46.1h-10.2c-1.4 0-2.5 1.1-2.5 2.5v13.6c0 1.4 1.1 2.5 2.5 2.5h106.1c1.4 0 2.5-1.1 2.5-2.5v-13.7c0-1.4-1.1-2.5-2.5-2.5h-10.2l-5.6-46.2h111.5c1.4 0 2.5-1.1 2.5-2.5v-175c0-1.4-1.1-2.5-2.5-2.5zm-5.5 158.6h-271.1v-150.2h271.1zm293-131.2h-263.6c-1.4 0-2.5 1.1-2.5 2.5v155.2c0 1.4 1.1 2.5 2.5 2.5h98.4l-4.9 40.3h-8.7c-1.4 0-2.5 1.1-2.5 2.5v12.1c0 1.4 1.1 2.5 2.5 2.5h94c1.4 0 2.5-1.1 2.5-2.5v-12.1c0-1.4-1.1-2.5-2.5-2.5h-8.8l-4.9-40.3h98.4c1.4 0 2.5-1.1 2.5-2.5v-155.2c.1-1.4-1-2.5-2.4-2.5zm-3.3 140.8h-242.3v-133.4h242.3z" fill="#f3d7d7"/><path d="m522.7 81.2v-10.8h15.3l6.1 12c.6 1.2 2.1 1.7 3.4 1.1 1.2-.6 1.7-2.1 1.1-3.4l-6.8-13.3c-.4-.8-1.3-1.4-2.2-1.4h-19.3c-1.4 0-2.5 1.1-2.5 2.5v13.3c0 1.4 1.1 2.5 2.5 2.5s2.4-1.1 2.4-2.5z" fill="#87143b"/><path d="m88.37 126.107 49.86-36.007 25.469 35.266-49.858 36.008z" fill="#f3d7d7"/><g fill="#c31c4a"><path d="m345.7 194.9v-2.5h-294.2v-169.8h291.7v172.3h5v-174.8c0-1.4-1.1-2.5-2.5-2.5h-296.7c-1.4 0-2.5 1.1-2.5 2.5v174.8c0 1.4 1.1 2.5 2.5 2.5h296.7c1.4 0 2.5-1.1 2.5-2.5z"/><path d="m333.3 182.5v-2.5h-269.4v-145h267v147.5h4.9v-150c0-1.4-1.1-2.5-2.5-2.5h-272c-1.4 0-2.5 1.1-2.5 2.5v150c0 1.4 1.1 2.5 2.5 2.5h272c1.4 0 2.5-1.1 2.5-2.5zm-170.3 12.4-2.5-.3-6.2 51c-.2 1.4.8 2.6 2.2 2.8h81.4c1.4 0 2.5-1.1 2.5-2.5v-.3l-6.2-51c-.2-1.3-1.2-2.2-2.5-2.2h-68.7c-1.3 0-2.3.9-2.5 2.2l2.5.3v2.5h66.5l5.6 46h-75.5l5.9-48.2z"/><path d="m250.3 259.5v-2.5h-103.4v-8.6h100.8v11.1h5.1v-13.6c0-.7-.3-1.3-.7-1.8-.5-.5-1.1-.7-1.8-.7h-105.9c-.7 0-1.3.3-1.8.7-.5.5-.7 1.1-.7 1.8v13.6c0 1.4 1.1 2.5 2.5 2.5h105.8c1.4 0 2.5-1.1 2.5-2.5zm382.2-57.2v-2.5h-260.5v-149.9h258v152.3h2.5v.1h2.5v-154.9c0-1.4-1.1-2.5-2.5-2.5h-263c-1.4 0-2.5 1.1-2.5 2.5v154.8c0 1.4 1.1 2.5 2.5 2.5h262.9c1.4 0 2.5-1.1 2.5-2.5h-2.4z"/><path d="m621.5 191.3v-2.5h-238.5v-127.9h236v130.4h5v-132.9c0-1.4-1.1-2.5-2.5-2.5h-241c-.7 0-1.3.3-1.8.7-.5.5-.7 1.1-.7 1.8v132.9c0 1.4 1.1 2.5 2.5 2.5h241c1.4 0 2.5-1.1 2.5-2.5zm-150.9 11-2.5-.3-5.5 45.2c-.2 1.4.8 2.6 2.2 2.8h72.1c.7 0 1.4-.3 1.9-.8s.7-1.3.6-2l-5.5-45.1c-.2-1.3-1.2-2.2-2.5-2.2h-60.9c-1.3 0-2.3.9-2.5 2.2l2.6.2v2.5h58.7l4.9 40.2h-66.2l5.1-42.4z"/><path d="m547.9 259.5v-2.5h-91.3v-7h88.8v9.6l2.5-.1h2.5v-12.1c0-.7-.3-1.3-.7-1.8-.5-.5-1.1-.7-1.8-.7h-93.8c-1.4 0-2.5 1.1-2.5 2.5v12.1c0 1.4 1.1 2.5 2.5 2.5h93.8c1.4 0 2.5-1.1 2.5-2.5z"/></g><path d="m546.4 96.8v32l9.3-11.7 15.1.5z" fill="#f3d7d7"/><path d="m576.8 113.6-24.4-20.8v32l9.3-11.7 9 19.7" fill="#f7f6f9"/><path d="m578.4 111.7-24.4-20.8c-1.1-.9-2.6-.8-3.5.3-.4.5-.6 1-.6 1.6v32c0 1.4 1.1 2.5 2.5 2.5.8 0 1.5-.3 2-.9l6.8-8.4 7.3 15.9c.6 1.3 2.1 1.8 3.3 1.2 1.3-.6 1.8-2.1 1.2-3.3l-9-19.6c-.6-1.3-2.1-1.8-3.3-1.2-.4.2-.7.4-.9.7l-4.9 6.1v-19.6l20.3 17.3c1.1.9 2.6.8 3.5-.3s.8-2.6-.3-3.5z" fill="#87143b"/><path d="m611.2 78.7h-220.6c-1.4 0-2.5 1.1-2.5 2.5s1.1 2.5 2.5 2.5h220.6c1.4 0 2.5-1.1 2.5-2.5s-1.1-2.5-2.5-2.5" fill="#c31c4a"/><path d="m393.1 81.2v-10.8h15.3l6.1 12c.7 1.2 2.2 1.7 3.4 1s1.7-2.2 1-3.4l-6.8-13.3c-.4-.8-1.3-1.4-2.2-1.4h-19.4c-1.4 0-2.5 1.1-2.5 2.5v13.3c0 1.4 1.1 2.5 2.5 2.5s2.6-1.1 2.6-2.4zm32.4 0v-10.8h15.4l6.1 12c.7 1.2 2.2 1.7 3.4 1s1.7-2.2 1-3.4l-6.8-13.3c-.4-.8-1.3-1.4-2.2-1.4h-19.4c-1.4 0-2.5 1.1-2.5 2.5v13.3c0 1.4 1.1 2.5 2.5 2.5s2.5-1.1 2.5-2.4zm32.4 0v-10.8h15.3l6.2 12c.7 1.2 2.2 1.7 3.4 1s1.7-2.2 1-3.4l-6.8-13.3c-.4-.8-1.3-1.4-2.2-1.4h-19.4c-1.4 0-2.5 1.1-2.5 2.5v13.3c0 1.4 1.1 2.5 2.5 2.5 1.4.1 2.5-1 2.5-2.4zm32.4 0v-10.8h15.3l6.1 12c.6 1.2 2.1 1.7 3.4 1.1 1.2-.6 1.7-2.1 1.1-3.4l-6.8-13.3c-.4-.8-1.3-1.4-2.2-1.4h-19.4c-1.4 0-2.5 1.1-2.5 2.5v13.3c0 1.4 1.1 2.5 2.5 2.5s2.5-1.1 2.5-2.5zm64.8 0v-10.8h15.3l6.1 12c.7 1.2 2.2 1.7 3.4 1s1.7-2.2 1-3.4l-6.8-13.3c-.4-.8-1.3-1.4-2.2-1.4h-19.3c-1.4 0-2.5 1.1-2.5 2.5v13.3c0 1.4 1.1 2.5 2.5 2.5s2.5-1.1 2.5-2.4zm32.4 0v-10.8h15.3l6.1 12c.6 1.2 2.1 1.7 3.4 1.1 1.2-.6 1.7-2.1 1.1-3.4l-6.8-13.3c-.4-.8-1.3-1.4-2.2-1.4h-19.4c-1.4 0-2.5 1.1-2.5 2.5v13.3c0 1.4 1.1 2.5 2.5 2.5s2.5-1.1 2.5-2.5z" fill="#c31c4a"/><path d="m256.1 51.7c22.2 15.7.1 47.3 19.4 60.9l44.1-7.6c-17.6-12.5-2.2-48.8-19.4-60.9z" fill="#fff"/><path d="m256.1 51.7-1.5 2c2 1.4 3.7 3.1 5.1 5 1.9 2.6 3.2 5.6 3.8 8.8.7 3.4 1 6.8.9 10.3 0 4.1-.3 8.3-.3 12.5-.1 4.5.4 8.9 1.7 13.2.7 2.1 1.7 4.2 3 6 1.4 2 3.1 3.7 5.1 5.1.5.4 1.2.5 1.9.4l44.1-7.6c1.4-.2 2.3-1.5 2-2.9-.1-.7-.5-1.2-1-1.6-1.8-1.3-3.4-3-4.5-4.9-2-3.4-3-7.8-3.6-12.7-.4-3.7-.6-7.6-.7-11.6-.2-6-.5-12.1-1.8-17.6-.6-2.7-1.6-5.4-3-7.8-1.4-2.5-3.4-4.6-5.7-6.3-.5-.4-1.2-.5-1.9-.4l-44.1 7.6c-1.4.2-2.3 1.5-2 2.9.1.6.5 1.2 1 1.6l1.5-2 .5 2.5 44.1-7.6-.4-2.5-1.5 2c1.8 1.3 3.3 2.9 4.3 4.8 1.9 3.3 2.9 7.7 3.5 12.6.4 3.7.5 7.6.7 11.6.2 6 .5 12.1 1.9 17.7.6 2.8 1.7 5.4 3.1 7.9 1.5 2.5 3.5 4.7 5.8 6.4l1.4-2-.4-2.5-44.2 7.6.4 2.5 1.4-2c-1.5-1.1-2.9-2.4-4-3.9-1.5-2.2-2.5-4.7-3-7.3-.5-3-.8-6-.7-9 0-4 .2-8.2.3-12.5.2-5.1-.5-10.2-2-15.1-.9-2.5-2.1-4.9-3.6-7-1.8-2.3-3.9-4.4-6.3-6.1l-1.3 1.9.4 2.5z" fill="#c31c4a"/><path d="m275.3 107.7c1 1.6 2.3 3 3.7 4.3 1.1.9 2.6.7 3.5-.4.8-1 .7-2.5-.2-3.4-1.1-.9-2-2-2.8-3.2-.8-1.1-2.3-1.4-3.5-.6-1.1.7-1.4 2.2-.7 3.3zm-4.2-20.7v5.1c0 1.4 1.2 2.5 2.6 2.4s2.5-1.2 2.4-2.6v-2.8-2.1c0-1.4-1.1-2.5-2.5-2.5-1.2 0-2.4 1.1-2.5 2.5zm-.4-19.5c.3 1.5.4 3.1.5 4.7.1 1.4 1.3 2.4 2.7 2.3s2.4-1.3 2.3-2.7c-.1-1.8-.3-3.5-.6-5.2-.2-1.4-1.4-2.3-2.8-2.1s-2.3 1.4-2.1 2.8zm-9.2-15c1.2.9 2.4 1.8 3.4 2.9 1 1 2.5 1 3.5.1 1-1 1-2.5.1-3.5-1.3-1.3-2.7-2.5-4.1-3.6-1.1-.8-2.7-.5-3.5.6-.7 1.2-.5 2.7.6 3.5zm38.2-4.1c-1-1.6-2.3-3-3.8-4.2-1-.9-2.6-.8-3.5.2s-.8 2.6.2 3.5l.1.1c1.1.9 2 2 2.8 3.2.8 1.1 2.3 1.5 3.5.7s1.5-2.3.7-3.5zm5.2 20.4c-.1-1.7-.2-3.4-.4-5.1-.2-1.4-1.4-2.4-2.8-2.2s-2.4 1.4-2.2 2.8c.2 1.6.3 3.2.4 4.9.1 1.4 1.3 2.4 2.7 2.3s2.4-1.3 2.3-2.7zm1.3 19.8c-.2-1.6-.4-3.2-.5-4.8-.1-1.4-1.3-2.4-2.7-2.3s-2.4 1.3-2.3 2.7c.1 1.7.3 3.4.6 5.1.1 1.4 1.4 2.4 2.7 2.2s2.4-1.4 2.2-2.7zm7.9 15.6c-1.2-.8-2.2-1.8-3.1-2.9s-2.4-1.2-3.5-.4c-1.1.9-1.2 2.4-.4 3.5 1.2 1.5 2.6 2.8 4.1 3.9 1.1.8 2.7.5 3.5-.6.8-1.2.5-2.7-.6-3.5zm-31-30.6-2.5.4 2.3 12.3c.2 1.4 1.5 2.3 2.9 2 .4-.1.8-.2 1.1-.5l10.5-8.2c1.1-.9 1.3-2.4.4-3.5-.3-.4-.7-.7-1.2-.8l-12.7-4.2c-1.3-.4-2.7.3-3.1 1.6-.1.4-.2.8-.1 1.2l2.4-.3-.8 2.4 8.3 2.7-3.5 2.8-1.5-8.3-2.5.4-.8 2.4z" fill="#c31c4a"/><path d="m222.2 121.3v-7.5h-42.4l-7.9-7.8h-16.7v56.6h67l10-41.3z" fill="#f3d7d7"/><path d="m228.5 114.9v-7.4h-42.4l-7.9-7.8h-16.7v56.6" fill="#fff"/><path d="m231 115v-7.4c0-1.4-1.1-2.5-2.5-2.5h-41.4l-7.1-7.2c-.5-.5-1.1-.7-1.8-.7h-16.8c-1.4 0-2.5 1.1-2.5 2.5v56.7c0 1.4 1.1 2.5 2.5 2.5s2.5-1.1 2.5-2.5v-54.2h13.2l7.1 7.1c.5.5 1.1.7 1.8.7h40v5c0 1.4 1.1 2.5 2.5 2.5s2.5-1.1 2.5-2.5z" fill="#87143b"/><path d="m89.37 118.105 49.859-36.008 25.41 35.184-49.858 36.008z" fill="#fff"/><path d="m139.2 82.2-1.5-2-49.8 36c-1.1.8-1.4 2.4-.6 3.5l25.4 35.2c.4.5 1 .9 1.6 1 .7.1 1.3-.1 1.9-.4l49.8-36c.5-.4.9-1 1-1.6.1-.7 0-1.3-.4-1.9l-25.4-35.2c-.8-1.1-2.4-1.4-3.5-.6l1.5 2-2 1.4 24 33.2-45.8 33-22.5-31.2 47.8-34.5-1.5-1.9-1.9 1.5z" fill="#c31c4a"/><path d="m113.4 149.4 12.3-26.9 32.6 2c1.4.1 2.6-1 2.7-2.3.1-1.4-1-2.6-2.4-2.7l-34.4-2.1c-1-.1-2 .5-2.4 1.4l-13 28.4c-.6 1.3 0 2.7 1.2 3.3 1.4.7 2.8.2 3.4-1.1z" fill="#c31c4a"/><path d="m134.6 121.4 7.3-15.9 12.8.8c1.4.1 2.6-1 2.7-2.3.1-1.4-1-2.6-2.4-2.7l-14.5-.9c-1-.1-2 .5-2.4 1.4l-8 17.5c-.6 1.3 0 2.7 1.2 3.3s2.7.1 3.3-1.2zm-23.4-3.2-2 1.5c.5.7.4 1.8-.3 2.3-.3.2-.6.3-1 .3-.5 0-1-.3-1.3-.7-.2-.3-.3-.6-.3-1 0-.5.3-1 .7-1.3.7-.5 1.8-.4 2.3.3l1.9-1.4 2-1.5c-2.2-2.9-6.3-3.6-9.3-1.4-2.9 2.2-3.6 6.3-1.4 9.3s6.3 3.6 9.3 1.4c1.7-1.2 2.7-3.2 2.7-5.3 0-1.4-.5-2.8-1.3-4z" fill="#c31c4a"/><path d="m245 52.7-20.4 6.4-22.8 43.6 23.3 12.2h13.4l-1.3 6.4 4.9 2.6 29.8-57.1z" fill="#fff"/><path d="m245 52.7-.7-2.4-20.3 6.4c-.6.2-1.2.6-1.5 1.2l-22.9 43.7c-.6 1.2-.2 2.7 1 3.4l23.3 12.2c.4.2.8.3 1.2.3h10.3l-.7 3.3c-.2 1.1.3 2.2 1.3 2.8l4.9 2.6c1.2.6 2.7.2 3.4-1.1l29.9-57c.3-.6.4-1.3.2-1.9s-.6-1.2-1.2-1.5l-27-14.1c-.6-.3-1.3-.4-1.9-.2l.7 2.3-1.2 2.2 24.8 13-27.6 52.6-1-.5 1-4.5c.3-1.4-.6-2.7-1.9-2.9-.2 0-.3-.1-.5-.1h-12.8l-20.6-10.8 21.2-40.5 19.3-6-.7-2.5-1.2 2.2z" fill="#c31c4a"/><path d="m224.6 59.1-1.2 2.2 13.3 7c1.2.6 2.7.2 3.4-1.1l7-13.3c.6-1.2.2-2.7-1.1-3.4-.6-.3-1.3-.4-1.9-.2l-20.3 6.4c-1.3.4-2.1 1.8-1.6 3.1.2.6.6 1.2 1.2 1.5l1.2-2.2.7 2.4 14.6-4.6-3 5.8-11.1-5.8-1.2 2.2.8 2.4zm2.2 15.1 24.5 12.8c1.2.6 2.7.2 3.4-1.1s.2-2.7-1.1-3.4l-24.5-12.8c-1.2-.6-2.7-.2-3.4 1.1s-.1 2.7 1.1 3.4m-3.3 6.4 24.5 12.8c1.2.6 2.7.2 3.4-1.1s.2-2.7-1.1-3.4l-24.5-12.8c-1.2-.6-2.7-.2-3.4 1.1s-.2 2.7 1.1 3.4m-3.4 6.4 24.5 12.8c1.2.6 2.7.2 3.4-1.1s.2-2.7-1.1-3.4l-24.5-12.8c-1.2-.6-2.7-.2-3.4 1.1s-.1 2.8 1.1 3.4m-3.3 6.3 24.5 12.8c1.2.6 2.7.2 3.4-1.1s.2-2.7-1.1-3.4l-24.5-12.8c-1.2-.6-2.7-.2-3.4 1.1s-.1 2.8 1.1 3.4" fill="#c31c4a"/><path d="m228.5 156.3 10-41.4h-67l-10 41.4z" fill="#fff"/><path d="m228.5 156.3 2.4.6 10-41.4c.3-1.3-.5-2.7-1.8-3-.2 0-.4-.1-.6-.1h-67c-1.2 0-2.2.8-2.4 1.9l-10.1 41.4c-.3 1.3.5 2.7 1.8 3 .2 0 .4.1.6.1h67c1.2 0 2.2-.8 2.4-1.9l-2.3-.6-.1-2.5h-63.8l8.8-36.4h61.9l-9.3 38.3z" fill="#87143b"/></svg>